<svg xmlns="http://www.w3.org/2000/svg" xmlns:xlink="http://www.w3.org/1999/xlink" width="1484pt" height="1277pt" viewBox="0 0 1484 1277.2"><g id="graph0" class="graph" transform="scale(1 1) rotate(0) translate(4 1273.1977)"><title>Pipeline:</title><polygon fill="#fff" stroke="transparent" points="-4 4 -4 -1273.198 1480 -1273.198 1480 4 -4 4"/><g id="clust1" class="cluster"><title>clustertasks</title><polygon fill="none" stroke="#000" points="8 -8 8 -1261.198 1468 -1261.198 1468 -8 8 -8"/><text x="738" y="-1233.198" fill="#ff3232" font-family="Times,serif" font-size="30" text-anchor="middle">Pipeline:</text></g><g id="node1" class="node"><title>t0</title><polygon fill="#efa03b" stroke="#000" points="1215.705 -1215.198 1006.295 -1215.198 1002.295 -1211.198 1002.295 -1179.198 1211.705 -1179.198 1215.705 -1183.198 1215.705 -1215.198"/><polyline fill="none" stroke="#000" points="1211.705 -1211.198 1002.295 -1211.198"/><polyline fill="none" stroke="#000" points="1211.705 -1211.198 1211.705 -1179.198"/><polyline fill="none" stroke="#000" points="1211.705 -1211.198 1215.705 -1215.198"/><text x="1109" y="-1191.198" fill="#000" font-family="Times,serif" font-size="20" text-anchor="middle">ocrmypdf.pipeline.triage</text></g><g id="node2" class="node"><title>t1</title><polygon fill="#efa03b" stroke="#000" points="1280.043 -1157.198 941.957 -1157.198 937.957 -1153.198 937.957 -1121.198 1276.043 -1121.198 1280.043 -1125.198 1280.043 -1157.198"/><polyline fill="none" stroke="#000" points="1276.043 -1153.198 937.957 -1153.198"/><polyline fill="none" stroke="#000" points="1276.043 -1153.198 1276.043 -1121.198"/><polyline fill="none" stroke="#000" points="1276.043 -1153.198 1280.043 -1157.198"/><text x="1109" y="-1133.198" fill="#000" font-family="Times,serif" font-size="20" text-anchor="middle">ocrmypdf.pipeline.repair_and_parse_pdf</text></g><g id="edge1" class="edge"><title>t0-&gt;t1</title><path fill="none" stroke="#0044a0" d="M1109,-1179.1641C1109,-1175.4895 1109,-1171.5395 1109,-1167.604"/><polygon fill="#0044a0" stroke="#0044a0" points="1112.5 -1167.42 1109 -1157.42 1105.5 -1167.42 1112.5 -1167.42"/></g><g id="node3" class="node"><title>t2</title><polygon fill="#efa03b" stroke="#000" points="1030.093 -1078.273 785 -1095.173 539.907 -1078.273 540.136 -1050.928 1029.864 -1050.928 1030.093 -1078.273"/><polygon fill="none" stroke="#000" points="1034.125 -1082.002 785 -1099.18 535.875 -1082.002 536.168 -1046.931 1033.832 -1046.931 1034.125 -1082.002"/><text x="785" y="-1064.715" fill="#000" font-family="Times,serif" font-size="20" text-anchor="middle">ocrmypdf.pipeline.marker_pages</text></g><g id="edge2" class="edge"><title>t1-&gt;t2</title><path fill="none" stroke="#0044a0" d="M1023.449,-1121.1152C984.5695,-1112.8974 938.0675,-1103.0685 896.4957,-1094.2816"/><polygon fill="#0044a0" stroke="#0044a0" points="897.107 -1090.833 886.599 -1092.19 895.659 -1097.682 897.107 -1090.833"/></g><g id="node17" class="node"><title>t16</title><polygon fill="#0c6" stroke="#000" points="1215.506 -328.186 942.494 -328.186 938.494 -324.186 938.494 -292.186 1211.506 -292.186 1215.506 -296.186 1215.506 -328.186"/><polyline fill="none" stroke="#000" points="1211.506 -324.186 938.494 -324.186"/><polyline fill="none" stroke="#000" points="1211.506 -324.186 1211.506 -292.186"/><polyline fill="none" stroke="#000" points="1211.506 -324.186 1215.506 -328.186"/><text x="1077" y="-304.186" fill="#000" font-family="Times,serif" font-size="20" text-anchor="middle">ocrmypdf.pipeline.weave_layers</text></g><g id="edge24" class="edge"><title>t1-&gt;t16</title><path fill="none" stroke="#0044a0" d="M1097.2373,-1120.9576C1077.987,-1088.7184 1043.7317,-1019.7372 1063,-963.2656 1106.87,-834.6914 1482.8098,-573.3183 1409,-459.2656 1362.7595,-387.8137 1273.2613,-350.2799 1198.8305,-330.7528"/><polygon fill="#0044a0" stroke="#0044a0" points="1199.456 -327.3 1188.901 -328.23 1197.732 -334.085 1199.456 -327.3"/></g><g id="node18" class="node"><title>t17</title><polygon fill="#efa03b" stroke="#000" points="1439.516 -1009.749 1076.484 -1009.749 1072.484 -1005.749 1072.484 -973.749 1435.516 -973.749 1439.516 -977.749 1439.516 -1009.749"/><polyline fill="none" stroke="#000" points="1435.516 -1005.749 1072.484 -1005.749"/><polyline fill="none" stroke="#000" points="1435.516 -1005.749 1435.516 -973.749"/><polyline fill="none" stroke="#000" points="1435.516 -1005.749 1439.516 -1009.749"/><text x="1256" y="-985.749" fill="#000" font-family="Times,serif" font-size="20" text-anchor="middle">ocrmypdf.pipeline.generate_postscript_stub</text></g><g id="edge25" class="edge"><title>t1-&gt;t17</title><path fill="none" stroke="#0044a0" d="M1127.0251,-1121.1176C1153.0342,-1095.0292 1201.2007,-1046.7157 1230.7429,-1017.0834"/><polygon fill="#0044a0" stroke="#0044a0" points="1233.246 -1019.53 1237.828 -1009.977 1228.289 -1014.588 1233.246 -1019.53"/></g><g id="node19" class="node"><title>t18</title><polygon fill="#efa03b" stroke="#000" points="1070.189 -214.429 1263 -187.11 1455.811 -214.429 1455.631 -258.632 1070.369 -258.632 1070.189 -214.429"/><polygon fill="none" stroke="#000" points="1066.171 -210.954 1263 -183.066 1459.829 -210.954 1459.618 -262.635 1066.382 -262.635 1066.171 -210.954"/><text x="1263" y="-220.646" fill="#000" font-family="Times,serif" font-size="20" text-anchor="middle">ocrmypdf.pipeline.metadata_fixup</text></g><g id="edge28" class="edge"><title>t1-&gt;t18</title><path fill="none" stroke="#0044a0" d="M1241.1115,-1121.1192C1311.0076,-1105.2558 1393.5851,-1075.5895 1449,-1020.2329 1458.4922,-1010.7507 1459,-1005.1661 1459,-991.7492 1459,-991.7492 1459,-991.7492 1459,-393.7258 1459,-341.9727 1441.8377,-325.2216 1402,-292.1861 1390.9869,-283.0534 1378.4885,-274.871 1365.6104,-267.6415"/><polygon fill="#0044a0" stroke="#0044a0" points="1367.108 -264.472 1356.648 -262.789 1363.775 -270.628 1367.108 -264.472"/></g><g id="node4" class="node"><title>t3</title><polygon fill="#efa03b" stroke="#000" points="1015.519 -999.307 785 -1016.208 554.481 -999.307 554.696 -971.962 1015.304 -971.962 1015.519 -999.307"/><polygon fill="none" stroke="#000" points="1019.549 -1003.02 785 -1020.216 550.451 -1003.02 550.727 -967.964 1019.273 -967.964 1019.549 -1003.02"/><text x="785" y="-985.749" fill="#000" font-family="Times,serif" font-size="20" text-anchor="middle">ocrmypdf.pipeline.ocr_or_skip</text></g><g id="edge3" class="edge"><title>t2-&gt;t3</title><path fill="none" stroke="#0044a0" d="M785,-1046.5938C785,-1041.5635 785,-1036.139 785,-1030.7273"/><polygon fill="#0044a0" stroke="#0044a0" points="788.5 -1030.443 785 -1020.443 781.5 -1030.443 788.5 -1030.443"/></g><g id="node5" class="node"><title>t4</title><polygon fill="#efa03b" stroke="#000" points="889.317 -941.266 582.683 -941.266 578.683 -937.266 578.683 -905.266 885.317 -905.266 889.317 -909.266 889.317 -941.266"/><polyline fill="none" stroke="#000" points="885.317 -937.266 578.683 -937.266"/><polyline fill="none" stroke="#000" points="885.317 -937.266 885.317 -905.266"/><polyline fill="none" stroke="#000" points="885.317 -937.266 889.317 -941.266"/><text x="734" y="-917.266" fill="#000" font-family="Times,serif" font-size="20" text-anchor="middle">ocrmypdf.pipeline.rasterize_preview</text></g><g id="edge4" class="edge"><title>t3-&gt;t4</title><path fill="none" stroke="#0044a0" d="M767.1627,-967.797C762.8396,-961.9919 758.1927,-955.7519 753.7858,-949.8343"/><polygon fill="#0044a0" stroke="#0044a0" points="756.346 -947.413 747.567 -941.483 750.732 -951.594 756.346 -947.413"/></g><g id="node6" class="node"><title>t5</title><polygon fill="#efa03b" stroke="#000" points="1028.082 -883.266 769.918 -883.266 765.918 -879.266 765.918 -847.266 1024.082 -847.266 1028.082 -851.266 1028.082 -883.266"/><polyline fill="none" stroke="#000" points="1024.082 -879.266 765.918 -879.266"/><polyline fill="none" stroke="#000" points="1024.082 -879.266 1024.082 -847.266"/><polyline fill="none" stroke="#000" points="1024.082 -879.266 1028.082 -883.266"/><text x="897" y="-859.266" fill="#000" font-family="Times,serif" font-size="20" text-anchor="middle">ocrmypdf.pipeline.orient_page</text></g><g id="edge6" class="edge"><title>t3-&gt;t5</title><path fill="none" stroke="#0044a0" d="M869.1177,-967.8063C880.553,-961.0264 890.81,-952.3527 898,-941.2656 907.042,-927.3226 906.9457,-908.7053 904.5139,-893.387"/><polygon fill="#0044a0" stroke="#0044a0" points="907.914 -892.538 902.541 -883.407 901.047 -893.896 907.914 -892.538"/></g><g id="edge5" class="edge"><title>t4-&gt;t5</title><path fill="none" stroke="#0044a0" d="M784.6807,-905.2319C801.0865,-899.3943 819.4462,-892.8614 836.4913,-886.7963"/><polygon fill="#0044a0" stroke="#0044a0" points="838.103 -889.938 846.351 -883.288 835.756 -883.343 838.103 -889.938"/></g><g id="node7" class="node"><title>t6</title><polygon fill="#efa03b" stroke="#000" points="1064.733 -825.266 689.268 -825.266 685.268 -821.266 685.268 -789.266 1060.733 -789.266 1064.733 -793.266 1064.733 -825.266"/><polyline fill="none" stroke="#000" points="1060.733 -821.266 685.268 -821.266"/><polyline fill="none" stroke="#000" points="1060.733 -821.266 1060.733 -789.266"/><polyline fill="none" stroke="#000" points="1060.733 -821.266 1064.733 -825.266"/><text x="875" y="-801.266" fill="#000" font-family="Times,serif" font-size="20" text-anchor="middle">ocrmypdf.pipeline.rasterize_with_ghostscript</text></g><g id="edge7" class="edge"><title>t5-&gt;t6</title><path fill="none" stroke="#0044a0" d="M890.1597,-847.2319C888.6839,-843.3412 887.0909,-839.1417 885.5115,-834.9776"/><polygon fill="#0044a0" stroke="#0044a0" points="888.731 -833.596 881.912 -825.488 882.186 -836.079 888.731 -833.596"/></g><g id="node16" class="node"><title>t13</title><polygon fill="#0c6" stroke="#000" points="1077 -515.266 754.414 -487.266 1077 -459.266 1399.586 -487.266 1077 -515.266"/><text x="1077" y="-481.266" fill="#000" font-family="Times,serif" font-size="20" text-anchor="middle">ocrmypdf.pipeline.select_image_layer</text></g><g id="edge20" class="edge"><title>t5-&gt;t13</title><path fill="none" stroke="#0044a0" d="M1000.2704,-847.241C1031.2359,-840.6873 1060.5415,-832.9862 1074,-825.2656 1114.0954,-802.2644 1145,-795.4899 1145,-749.2656 1145,-749.2656 1145,-749.2656 1145,-633.2656 1145,-590.368 1154.8687,-575.2844 1135,-537.2656 1131.571,-530.7041 1126.8893,-524.6314 1121.6622,-519.1451"/><polygon fill="#0044a0" stroke="#0044a0" points="1123.899 -516.441 1114.263 -512.037 1119.049 -521.489 1123.899 -516.441"/></g><g id="node8" class="node"><title>t7</title><polygon fill="#efa03b" stroke="#000" points="856.08 -767.266 431.92 -767.266 427.92 -763.266 427.92 -731.266 852.08 -731.266 856.08 -735.266 856.08 -767.266"/><polyline fill="none" stroke="#000" points="852.08 -763.266 427.92 -763.266"/><polyline fill="none" stroke="#000" points="852.08 -763.266 852.08 -731.266"/><polyline fill="none" stroke="#000" points="852.08 -763.266 856.08 -767.266"/><text x="642" y="-743.266" fill="#000" font-family="Times,serif" font-size="20" text-anchor="middle">ocrmypdf.pipeline.preprocess_remove_background</text></g><g id="edge8" class="edge"><title>t6-&gt;t7</title><path fill="none" stroke="#0044a0" d="M802.5546,-789.2319C777.7884,-783.067 749.9071,-776.1266 724.4138,-769.7806"/><polygon fill="#0044a0" stroke="#0044a0" points="724.95 -766.307 714.401 -767.288 723.259 -773.1 724.95 -766.307"/></g><g id="node15" class="node"><title>t12</title><polygon fill="#efa03b" stroke="#000" points="742 -593.266 358.187 -565.266 742 -537.266 1125.813 -565.266 742 -593.266"/><text x="742" y="-559.266" fill="#000" font-family="Times,serif" font-size="20" text-anchor="middle">ocrmypdf.pipeline.select_visible_page_image</text></g><g id="edge18" class="edge"><title>t6-&gt;t12</title><path fill="none" stroke="#0044a0" d="M875.1443,-789.1129C874.6867,-773.2956 872.5831,-750.0189 865,-731.2656 844.2991,-680.0716 804.0126,-630.4165 775.1838,-598.9641"/><polygon fill="#0044a0" stroke="#0044a0" points="777.494 -596.308 768.12 -591.37 772.368 -601.076 777.494 -596.308"/></g><g id="node9" class="node"><title>t8</title><polygon fill="#efa03b" stroke="#000" points="732.676 -709.266 413.324 -709.266 409.324 -705.266 409.324 -673.266 728.676 -673.266 732.676 -677.266 732.676 -709.266"/><polyline fill="none" stroke="#000" points="728.676 -705.266 409.324 -705.266"/><polyline fill="none" stroke="#000" points="728.676 -705.266 728.676 -673.266"/><polyline fill="none" stroke="#000" points="728.676 -705.266 732.676 -709.266"/><text x="571" y="-685.266" fill="#000" font-family="Times,serif" font-size="20" text-anchor="middle">ocrmypdf.pipeline.preprocess_deskew</text></g><g id="edge9" class="edge"><title>t7-&gt;t8</title><path fill="none" stroke="#0044a0" d="M619.9243,-731.2319C613.9709,-726.3685 607.4267,-721.0226 601.115,-715.8666"/><polygon fill="#0044a0" stroke="#0044a0" points="603.265 -713.104 593.307 -709.488 598.837 -718.525 603.265 -713.104"/></g><g id="edge17" class="edge"><title>t7-&gt;t12</title><path fill="none" stroke="#0044a0" d="M717.0346,-731.1646C726.8757,-725.6884 735.7103,-718.5557 742,-709.2656 763.0291,-678.205 759.4083,-634.0888 752.8082,-602.8898"/><polygon fill="#0044a0" stroke="#0044a0" points="756.148 -601.798 750.487 -592.842 749.328 -603.373 756.148 -601.798"/></g><g id="node10" class="node"><title>t9</title><polygon fill="#efa03b" stroke="#000" points="712.883 -651.266 411.117 -651.266 407.117 -647.266 407.117 -615.266 708.883 -615.266 712.883 -619.266 712.883 -651.266"/><polyline fill="none" stroke="#000" points="708.883 -647.266 407.117 -647.266"/><polyline fill="none" stroke="#000" points="708.883 -647.266 708.883 -615.266"/><polyline fill="none" stroke="#000" points="708.883 -647.266 712.883 -651.266"/><text x="560" y="-627.266" fill="#000" font-family="Times,serif" font-size="20" text-anchor="middle">ocrmypdf.pipeline.preprocess_clean</text></g><g id="edge10" class="edge"><title>t8-&gt;t9</title><path fill="none" stroke="#0044a0" d="M567.5798,-673.2319C566.8624,-669.4493 566.0897,-665.3747 565.3216,-661.3247"/><polygon fill="#0044a0" stroke="#0044a0" points="568.758 -660.66 563.456 -651.488 561.881 -661.965 568.758 -660.66"/></g><g id="edge16" class="edge"><title>t8-&gt;t12</title><path fill="none" stroke="#0044a0" d="M670.0045,-673.2618C693.2528,-667.2338 713.6919,-659.8307 722,-651.2656 734.1971,-638.6912 739.4901,-620.2051 741.6123,-603.5914"/><polygon fill="#0044a0" stroke="#0044a0" points="745.104 -603.843 742.557 -593.558 738.135 -603.186 745.104 -603.843"/></g><g id="node11" class="node"><title>t10</title><polygon fill="#efa03b" stroke="#000" points="340.109 -583.266 35.891 -583.266 31.891 -579.266 31.891 -547.266 336.109 -547.266 340.109 -551.266 340.109 -583.266"/><polyline fill="none" stroke="#000" points="336.109 -579.266 31.891 -579.266"/><polyline fill="none" stroke="#000" points="336.109 -579.266 336.109 -547.266"/><polyline fill="none" stroke="#000" points="336.109 -579.266 340.109 -583.266"/><text x="186" y="-559.266" fill="#000" font-family="Times,serif" font-size="20" text-anchor="middle">ocrmypdf.pipeline.select_ocr_image</text></g><g id="edge11" class="edge"><title>t9-&gt;t10</title><path fill="none" stroke="#0044a0" d="M460.7568,-615.2213C409.7279,-605.9434 347.4237,-594.6153 295.0537,-585.0935"/><polygon fill="#0044a0" stroke="#0044a0" points="295.522 -581.621 285.058 -583.276 294.27 -588.509 295.522 -581.621"/></g><g id="edge15" class="edge"><title>t9-&gt;t12</title><path fill="none" stroke="#0044a0" d="M608.2948,-615.2213C627.0226,-608.2242 648.8712,-600.0609 669.4134,-592.3859"/><polygon fill="#0044a0" stroke="#0044a0" points="670.915 -595.561 679.057 -588.783 668.465 -589.004 670.915 -595.561"/></g><g id="node12" class="node"><title>t11</title><polygon fill="#0c6" stroke="#000" points="334.1 -505.266 19.9 -505.266 15.9 -501.266 15.9 -469.266 330.1 -469.266 334.1 -473.266 334.1 -505.266"/><polyline fill="none" stroke="#000" points="330.1 -501.266 15.9 -501.266"/><polyline fill="none" stroke="#000" points="330.1 -501.266 330.1 -469.266"/><polyline fill="none" stroke="#000" points="330.1 -501.266 334.1 -505.266"/><text x="175" y="-481.266" fill="#000" font-family="Times,serif" font-size="20" text-anchor="middle">ocrmypdf.pipeline.ocr_tesseract_hocr</text></g><g id="edge12" class="edge"><title>t10-&gt;t11</title><path fill="none" stroke="#0044a0" d="M183.4487,-547.1748C182.1254,-537.7914 180.4788,-526.1154 178.9917,-515.5701"/><polygon fill="#0044a0" stroke="#0044a0" points="182.438 -514.942 177.576 -505.529 175.506 -515.919 182.438 -514.942"/></g><g id="node14" class="node"><title>t15</title><polygon fill="#ff69b4" stroke="#000" points="736.27 -505.266 355.73 -505.266 351.73 -501.266 351.73 -469.266 732.27 -469.266 736.27 -473.266 736.27 -505.266"/><polyline fill="none" stroke="#000" points="732.27 -501.266 351.73 -501.266"/><polyline fill="none" stroke="#000" points="732.27 -501.266 732.27 -469.266"/><polyline fill="none" stroke="#000" points="732.27 -501.266 736.27 -505.266"/><text x="544" y="-481.266" fill="#000" font-family="Times,serif" font-size="20" text-anchor="middle">ocrmypdf.pipeline.ocr_tesseract_textonly_pdf</text></g><g id="edge14" class="edge"><title>t10-&gt;t15</title><path fill="none" stroke="#0044a0" d="M269.0322,-547.1748C323.4947,-535.3086 394.7854,-519.776 451.1284,-507.5002"/><polygon fill="#0044a0" stroke="#0044a0" points="452.083 -510.874 461.109 -505.326 450.593 -504.035 452.083 -510.874"/></g><g id="node13" class="node"><title>t14</title><polygon fill="#0c6" stroke="#000" points="330.043 -411.726 21.957 -411.726 17.957 -407.726 17.957 -375.726 326.043 -375.726 330.043 -379.726 330.043 -411.726"/><polyline fill="none" stroke="#000" points="326.043 -407.726 17.957 -407.726"/><polyline fill="none" stroke="#000" points="326.043 -407.726 326.043 -375.726"/><polyline fill="none" stroke="#000" points="326.043 -407.726 330.043 -411.726"/><text x="174" y="-387.726" fill="#000" font-family="Times,serif" font-size="20" text-anchor="middle">ocrmypdf.pipeline.render_hocr_page</text></g><g id="edge13" class="edge"><title>t11-&gt;t14</title><path fill="none" stroke="#0044a0" d="M174.8072,-469.2302C174.6642,-455.8584 174.4666,-437.3702 174.3027,-422.0357"/><polygon fill="#0044a0" stroke="#0044a0" points="177.802 -421.987 174.196 -412.025 170.803 -422.062 177.802 -421.987"/></g><g id="node22" class="node"><title>t19</title><polygon fill="#efa03b" stroke="#000" points="351.721 -381.509 545 -354.19 738.279 -381.509 738.099 -425.711 351.901 -425.711 351.721 -381.509"/><polygon fill="none" stroke="#000" points="347.703 -378.033 545 -350.146 742.297 -378.033 742.086 -429.715 347.914 -429.715 347.703 -378.033"/><text x="545" y="-387.726" fill="#000" font-family="Times,serif" font-size="20" text-anchor="middle">ocrmypdf.pipeline.merge_sidecars</text></g><g id="edge32" class="edge"><title>t11-&gt;t19</title><path fill="none" stroke="#0044a0" d="M246.3397,-469.2302C287.966,-458.7066 342.1269,-445.0142 392.8772,-432.184"/><polygon fill="#0044a0" stroke="#0044a0" points="393.806 -435.559 402.643 -429.715 392.09 -428.773 393.806 -435.559"/></g><g id="edge22" class="edge"><title>t14-&gt;t16</title><path fill="none" stroke="#0044a0" d="M230.6615,-375.7128C262.2207,-366.4581 302.4172,-355.9425 339,-350.1861 448.3957,-332.9725 745.7869,-320.7866 927.9215,-314.6743"/><polygon fill="#0044a0" stroke="#0044a0" points="928.248 -318.166 938.126 -314.334 928.015 -311.169 928.248 -318.166"/></g><g id="edge21" class="edge"><title>t15-&gt;t16</title><path fill="none" stroke="#0044a0" d="M630.0636,-469.2083C667.5329,-460.6467 711.76,-449.5912 751,-437.2656 850.4985,-406.0121 963.1653,-359.5222 1026.586,-332.2894"/><polygon fill="#0044a0" stroke="#0044a0" points="1028.157 -335.424 1035.955 -328.252 1025.387 -328.995 1028.157 -335.424"/></g><g id="edge31" class="edge"><title>t15-&gt;t19</title><path fill="none" stroke="#0044a0" d="M544.1928,-469.2302C544.2822,-460.8687 544.393,-450.5066 544.5035,-440.166"/><polygon fill="#0044a0" stroke="#0044a0" points="548.006 -439.944 544.613 -429.908 541.006 -439.869 548.006 -439.944"/></g><g id="edge19" class="edge"><title>t12-&gt;t13</title><path fill="none" stroke="#0044a0" d="M833.9833,-543.8486C879.0975,-533.3444 933.4556,-520.6879 979.3116,-510.0109"/><polygon fill="#0044a0" stroke="#0044a0" points="980.316 -513.371 989.261 -507.694 978.728 -506.553 980.316 -513.371"/></g><g id="edge23" class="edge"><title>t13-&gt;t16</title><path fill="none" stroke="#0044a0" d="M1077,-459.2068C1077,-426.2624 1077,-371.9187 1077,-338.7552"/><polygon fill="#0044a0" stroke="#0044a0" points="1080.5 -338.382 1077 -328.382 1073.5 -338.382 1080.5 -338.382"/></g><g id="edge27" class="edge"><title>t16-&gt;t18</title><path fill="none" stroke="#0044a0" d="M1117.3592,-292.0592C1133.8695,-284.6437 1153.6803,-275.7459 1173.2953,-266.9361"/><polygon fill="#0044a0" stroke="#0044a0" points="1174.898 -270.053 1182.586 -262.763 1172.03 -263.668 1174.898 -270.053"/></g><g id="edge26" class="edge"><title>t17-&gt;t18</title><path fill="none" stroke="#0044a0" d="M1326.2292,-973.7283C1377.8362,-955.768 1439,-922.4247 1439,-865.2656 1439,-865.2656 1439,-865.2656 1439,-393.7258 1439,-338.7092 1393.2056,-296.3464 1348.3356,-268.0433"/><polygon fill="#0044a0" stroke="#0044a0" points="1350.04 -264.983 1339.684 -262.747 1346.385 -270.953 1350.04 -264.983"/></g><g id="node20" class="node"><title>t20</title><polygon fill="#efa03b" stroke="#000" points="1400.318 -161.106 1129.682 -161.106 1125.682 -157.106 1125.682 -125.106 1396.318 -125.106 1400.318 -129.106 1400.318 -161.106"/><polyline fill="none" stroke="#000" points="1396.318 -157.106 1125.682 -157.106"/><polyline fill="none" stroke="#000" points="1396.318 -157.106 1396.318 -125.106"/><polyline fill="none" stroke="#000" points="1396.318 -157.106 1400.318 -161.106"/><text x="1263" y="-137.106" fill="#000" font-family="Times,serif" font-size="20" text-anchor="middle">ocrmypdf.pipeline.optimize_pdf</text></g><g id="edge29" class="edge"><title>t18-&gt;t20</title><path fill="none" stroke="#0044a0" d="M1263,-182.9188C1263,-179.129 1263,-175.3607 1263,-171.739"/><polygon fill="#0044a0" stroke="#0044a0" points="1266.5 -171.439 1263 -161.439 1259.5 -171.439 1266.5 -171.439"/></g><g id="node21" class="node"><title>t21</title><polygon fill="#efa03b" stroke="#000" points="1096.065 -47.332 1263 -20.005 1429.935 -47.332 1429.779 -91.548 1096.221 -91.548 1096.065 -47.332"/><polygon fill="none" stroke="#000" points="1092.054 -43.931 1263 -15.947 1433.946 -43.931 1433.764 -95.553 1092.236 -95.553 1092.054 -43.931"/><text x="1263" y="-53.553" fill="#000" font-family="Times,serif" font-size="20" text-anchor="middle">ocrmypdf.pipeline.copy_final</text></g><g id="edge30" class="edge"><title>t20-&gt;t21</title><path fill="none" stroke="#0044a0" d="M1263,-124.9764C1263,-119.37 1263,-112.9163 1263,-106.2938"/><polygon fill="#0044a0" stroke="#0044a0" points="1266.5 -105.846 1263 -95.846 1259.5 -105.846 1266.5 -105.846"/></g></g></svg>